<svg width="303.201" height="70.901" viewBox="0 0 303.201 70.901" xmlns="http://www.w3.org/2000/svg"><g id="svgGroup" stroke-linecap="round" fill-rule="evenodd" font-size="9pt" stroke="#000" stroke-width="0.25mm" fill="none" style="stroke:#000;stroke-width:0.25mm;fill:none">
<path d="M 52.201 12.101 L 34.601 12.101 L 34.601 58.901 L 52.201 58.901 A 5.75 5.75 0 0 1 54.586 59.387 A 5.587 5.587 0 0 1 56.251 60.551 A 5.44 5.44 0 0 1 57.9 64.478 A 6.648 6.648 0 0 1 57.901 64.551 A 5.442 5.442 0 0 1 56.302 68.499 A 6.511 6.511 0 0 1 56.251 68.551 A 5.496 5.496 0 0 1 52.276 70.2 A 6.932 6.932 0 0 1 52.201 70.201 L 5.701 70.201 A 5.75 5.75 0 0 1 3.316 69.714 A 5.587 5.587 0 0 1 1.651 68.551 A 5.44 5.44 0 0 1 0.001 64.624 A 6.648 6.648 0 0 1 0.001 64.551 A 5.442 5.442 0 0 1 1.6 60.603 A 6.511 6.511 0 0 1 1.651 60.551 A 5.496 5.496 0 0 1 5.626 58.901 A 6.932 6.932 0 0 1 5.701 58.901 L 23.301 58.901 L 23.301 12.101 L 5.701 12.101 A 5.567 5.567 0 0 1 3.176 11.533 A 5.633 5.633 0 0 1 1.651 10.401 Q 0.001 8.701 0.001 6.351 A 5.442 5.442 0 0 1 1.6 2.403 A 6.511 6.511 0 0 1 1.651 2.351 A 5.496 5.496 0 0 1 5.626 0.701 A 6.932 6.932 0 0 1 5.701 0.701 L 52.201 0.701 A 5.75 5.75 0 0 1 54.586 1.187 A 5.587 5.587 0 0 1 56.251 2.351 A 5.496 5.496 0 0 1 57.9 6.326 A 6.932 6.932 0 0 1 57.901 6.401 Q 57.901 7.901 57.151 9.251 Q 56.401 10.601 55.101 11.351 A 5.653 5.653 0 0 1 52.4 12.098 A 6.71 6.71 0 0 1 52.201 12.101 Z" id="0" vector-effect="non-scaling-stroke"/>
<path d="M 77.801 58.901 L 111.501 58.901 Q 113.001 58.901 114.351 59.651 Q 115.701 60.401 116.451 61.701 A 5.653 5.653 0 0 1 117.198 64.402 A 6.71 6.71 0 0 1 117.201 64.601 Q 117.201 66.901 115.501 68.551 Q 113.801 70.201 111.501 70.201 L 72.201 70.201 A 5.75 5.75 0 0 1 69.816 69.714 A 5.587 5.587 0 0 1 68.151 68.551 A 5.51 5.51 0 0 1 66.763 66.33 A 5.608 5.608 0 0 1 66.501 64.601 L 66.501 5.701 A 5.75 5.75 0 0 1 66.987 3.316 A 5.587 5.587 0 0 1 68.151 1.651 A 5.44 5.44 0 0 1 72.078 0.001 A 6.648 6.648 0 0 1 72.151 0.001 A 5.442 5.442 0 0 1 76.099 1.6 A 6.511 6.511 0 0 1 76.151 1.651 A 5.496 5.496 0 0 1 77.8 5.626 A 6.932 6.932 0 0 1 77.801 5.701 L 77.801 58.901 Z" id="1" vector-effect="non-scaling-stroke"/>
<path d="M 133.201 41.001 L 115.201 41.001 A 5.885 5.885 0 0 1 113.143 40.646 A 5.502 5.502 0 0 1 112.301 40.251 Q 111.001 39.501 110.251 38.201 Q 109.501 36.901 109.501 35.401 L 109.501 5.701 A 5.75 5.75 0 0 1 109.987 3.316 A 5.587 5.587 0 0 1 111.151 1.651 A 5.44 5.44 0 0 1 115.078 0.001 A 6.648 6.648 0 0 1 115.151 0.001 A 5.442 5.442 0 0 1 119.099 1.6 A 6.511 6.511 0 0 1 119.151 1.651 A 5.496 5.496 0 0 1 120.8 5.626 A 6.932 6.932 0 0 1 120.801 5.701 L 120.801 29.701 L 157.001 29.701 L 157.001 5.701 A 5.75 5.75 0 0 1 157.487 3.316 A 5.587 5.587 0 0 1 158.651 1.651 A 5.44 5.44 0 0 1 162.578 0.001 A 6.648 6.648 0 0 1 162.651 0.001 A 5.442 5.442 0 0 1 166.599 1.6 A 6.511 6.511 0 0 1 166.651 1.651 A 5.496 5.496 0 0 1 168.3 5.626 A 6.932 6.932 0 0 1 168.301 5.701 L 168.301 35.401 A 5.381 5.381 0 0 1 166.702 39.299 A 6.653 6.653 0 0 1 166.651 39.351 A 5.51 5.51 0 0 1 164.43 40.739 A 5.608 5.608 0 0 1 162.701 41.001 L 144.601 41.001 L 144.601 65.301 A 5.381 5.381 0 0 1 143.002 69.199 A 6.653 6.653 0 0 1 142.951 69.251 A 5.44 5.44 0 0 1 139.024 70.9 A 6.648 6.648 0 0 1 138.951 70.901 Q 136.601 70.901 134.901 69.251 A 5.585 5.585 0 0 1 133.587 67.345 A 5.371 5.371 0 0 1 133.201 65.301 L 133.201 41.001 Z" id="2" vector-effect="non-scaling-stroke"/>
<path d="M 230.601 12.101 L 189.701 12.101 L 189.701 29.801 L 228.901 29.801 A 5.75 5.75 0 0 1 231.286 30.287 A 5.587 5.587 0 0 1 232.951 31.451 A 5.44 5.44 0 0 1 234.6 35.378 A 6.648 6.648 0 0 1 234.601 35.451 Q 234.601 37.801 232.951 39.501 Q 231.301 41.201 228.901 41.201 L 189.701 41.101 L 189.701 58.901 L 230.601 58.901 A 5.885 5.885 0 0 1 232.659 59.255 A 5.502 5.502 0 0 1 233.501 59.651 Q 234.801 60.401 235.551 61.701 A 5.653 5.653 0 0 1 236.298 64.402 A 6.71 6.71 0 0 1 236.301 64.601 A 5.381 5.381 0 0 1 234.702 68.499 A 6.653 6.653 0 0 1 234.651 68.551 A 5.496 5.496 0 0 1 230.676 70.2 A 6.932 6.932 0 0 1 230.601 70.201 L 184.101 70.201 A 5.75 5.75 0 0 1 181.716 69.714 A 5.587 5.587 0 0 1 180.051 68.551 A 5.51 5.51 0 0 1 178.663 66.33 A 5.608 5.608 0 0 1 178.401 64.601 L 178.401 6.401 A 5.75 5.75 0 0 1 178.887 4.016 A 5.587 5.587 0 0 1 180.051 2.351 A 5.496 5.496 0 0 1 184.026 0.701 A 6.932 6.932 0 0 1 184.101 0.701 L 230.601 0.701 A 5.75 5.75 0 0 1 232.986 1.187 A 5.587 5.587 0 0 1 234.651 2.351 A 5.44 5.44 0 0 1 236.3 6.278 A 6.648 6.648 0 0 1 236.301 6.351 Q 236.301 8.701 234.651 10.401 Q 233.001 12.101 230.601 12.101 Z" id="3" vector-effect="non-scaling-stroke"/>
<path d="M 250.901 58.801 L 291.801 58.801 L 291.801 41.101 L 250.901 41.101 A 5.567 5.567 0 0 1 248.376 40.533 A 5.633 5.633 0 0 1 246.851 39.401 Q 245.201 37.701 245.201 35.401 L 245.201 6.201 A 5.381 5.381 0 0 1 246.8 2.303 A 6.653 6.653 0 0 1 246.851 2.251 A 5.496 5.496 0 0 1 250.826 0.601 A 6.932 6.932 0 0 1 250.901 0.601 L 297.501 0.601 Q 299.001 0.601 300.351 1.351 Q 301.701 2.101 302.451 3.401 Q 303.201 4.701 303.201 6.201 A 5.75 5.75 0 0 1 302.714 8.586 A 5.587 5.587 0 0 1 301.551 10.251 A 5.496 5.496 0 0 1 297.576 11.9 A 6.932 6.932 0 0 1 297.501 11.901 L 256.501 11.901 L 256.501 29.701 L 297.501 29.701 A 5.75 5.75 0 0 1 299.886 30.187 A 5.587 5.587 0 0 1 301.551 31.351 A 5.496 5.496 0 0 1 303.2 35.326 A 6.932 6.932 0 0 1 303.201 35.401 L 303.201 64.501 A 5.75 5.75 0 0 1 302.714 66.886 A 5.587 5.587 0 0 1 301.551 68.551 A 5.496 5.496 0 0 1 297.576 70.2 A 6.932 6.932 0 0 1 297.501 70.201 L 250.901 70.201 A 5.75 5.75 0 0 1 248.516 69.714 A 5.587 5.587 0 0 1 246.851 68.551 A 5.44 5.44 0 0 1 245.201 64.624 A 6.648 6.648 0 0 1 245.201 64.551 Q 245.201 62.201 246.851 60.501 Q 248.501 58.801 250.901 58.801 Z" id="4" vector-effect="non-scaling-stroke"/></g>
</svg>